<?xml version="1.0" encoding="UTF-8"?>
<!-- Generated by Pixelmator Pro 3.6.17 -->
<svg width="93" height="91" viewBox="0 0 93 91" xmlns="http://www.w3.org/2000/svg">
    <g id="ARSlogo">
        <path id="Network-copie" fill="#fffdfd" fill-rule="evenodd" stroke="none" d="M 90.726768 45.510521 C 90.726768 21.963898 70.864601 2.87558 46.363384 2.87558 C 21.862164 2.87558 2 21.963898 2 45.510521 C 2 69.057152 21.862164 88.145462 46.363384 88.145462 C 70.864601 88.145462 90.726768 69.057152 90.726768 45.510521 Z"/>
        <path id="path924" fill="#143f94" stroke="none" d="M 23.058468 27.892216 C 26.862446 27.892216 29.620138 29.487347 29.620138 33.71851 L 29.620138 35.438 C 16.629267 37.744183 11.065222 40.877674 10.229809 46.766151 L 14.815149 46.766151 C 15.993921 43.302807 20.892864 40.899307 29.620138 39.366352 L 29.620138 46.766151 L 34.037849 46.766151 L 34.037849 33.659023 C 34.037849 26.670174 28.395397 24.093636 22.99358 24.093636 C 16.988852 24.093636 13.060501 27.156826 11.035495 30.836449 L 14.898957 32.858753 C 15.761403 30.712086 18.151398 27.892216 23.058468 27.892216"/>
        <path id="path926" fill="#143f94" stroke="none" d="M 20.825283 52.021969 L 21.422773 52.021969 L 21.130785 50.161884 L 21.117254 50.161884 Z M 20.58465 53.627922 L 19.865498 53.627922 L 20.665764 49.299438 L 21.587694 49.299438 L 22.382557 53.627922 L 21.666098 53.627922 L 21.533628 52.670849 L 20.717134 52.670849 Z M 20.58465 53.627922"/>
        <path id="path928" fill="#143f94" stroke="none" d="M 23.507263 52.346409 C 23.758701 52.346409 23.964172 52.154453 23.964172 51.559658 C 23.964172 50.967571 23.758701 50.7756 23.507263 50.7756 C 23.258535 50.7756 23.053064 50.967571 23.053064 51.559658 C 23.053064 52.154453 23.258535 52.346409 23.507263 52.346409 M 23.31802 53.460293 C 23.066582 53.568439 22.896255 53.714439 22.896255 53.887459 C 22.896255 54.147011 23.109838 54.322754 23.580263 54.322754 C 24.058802 54.322754 24.231836 54.130798 24.231836 53.882053 C 24.231836 53.592777 23.69112 53.54681 23.31802 53.460293 M 24.661713 50.848602 C 24.610355 50.835072 24.577904 50.835072 24.53734 50.835072 C 24.421082 50.835072 24.345387 50.883732 24.264288 50.954025 C 24.323771 51.148685 24.358902 51.305496 24.358902 51.554222 C 24.358902 52.335571 24.004736 52.670818 23.523489 52.670818 C 23.426149 52.670818 23.328825 52.649216 23.234196 52.649216 C 23.161196 52.665504 23.015209 52.727623 23.015209 52.851994 C 23.015209 53.07098 23.369375 53.081802 23.772219 53.16832 C 24.221014 53.260227 24.623857 53.408936 24.623857 53.917217 C 24.623857 54.322754 24.231836 54.64719 23.569443 54.64719 C 22.861095 54.64719 22.504219 54.387642 22.504219 53.9767 C 22.504219 53.698231 22.674561 53.473824 22.955725 53.354855 C 22.771868 53.292706 22.62048 53.141273 22.62048 52.933105 C 22.62048 52.700588 22.825949 52.554588 23.028725 52.519444 C 22.782692 52.346424 22.658335 51.951694 22.658335 51.627254 C 22.658335 50.883762 23.015209 50.451176 23.561344 50.451176 C 23.769524 50.451176 24.031769 50.543098 24.134497 50.740471 C 24.231836 50.572838 24.396757 50.451176 24.661713 50.451176 Z M 24.661713 50.848602"/>
        <path id="path930" fill="#143f94" stroke="none" d="M 26.319021 51.781353 C 26.310982 51.110847 26.186552 50.813457 25.797224 50.813457 C 25.489012 50.813457 25.283541 51.040554 25.278137 51.781353 Z M 25.278137 52.143631 L 25.278137 52.31665 C 25.278137 53.073677 25.448463 53.330517 25.856709 53.330517 C 26.186552 53.330517 26.327133 53.022305 26.375795 52.73843 L 26.789446 52.789787 C 26.719154 53.257515 26.367683 53.687393 25.797224 53.687393 C 25.145653 53.687393 24.845552 53.195324 24.845552 52.070618 C 24.845552 50.943218 25.145653 50.45116 25.797224 50.45116 C 26.459604 50.45116 26.751606 51.040543 26.751606 51.938148 L 26.751606 52.143616 Z M 25.278137 52.143631"/>
        <path id="path932" fill="#143f94" stroke="none" d="M 27.157145 50.513355 L 27.56539 50.513355 L 27.56539 50.854004 C 27.768166 50.643131 28.068266 50.451176 28.273735 50.451176 C 28.703611 50.451176 28.95505 50.694504 28.95505 51.26767 L 28.95505 53.627922 L 28.525173 53.627922 L 28.525173 51.327141 C 28.525173 50.967571 28.419737 50.813457 28.184509 50.813457 C 27.973637 50.813457 27.781683 50.954052 27.592422 51.197365 L 27.592422 53.627922 L 27.157145 53.627922 Z M 27.157145 50.513355"/>
        <path id="path934" fill="#143f94" stroke="none" d="M 30.804312 51.435287 C 30.761055 50.967571 30.571812 50.813457 30.306856 50.813457 C 29.944576 50.813457 29.787754 51.040554 29.787754 52.070633 C 29.787754 53.098015 29.944576 53.330532 30.306856 53.330532 C 30.585325 53.330532 30.742134 53.184517 30.815136 52.646507 L 31.23419 52.646507 C 31.163898 53.25753 30.87191 53.687405 30.306856 53.687405 C 29.657993 53.687405 29.355185 53.195339 29.355185 52.070633 C 29.355185 50.94323 29.657993 50.451176 30.306856 50.451176 C 30.87191 50.451176 31.139574 50.824276 31.220673 51.435287 Z M 30.804312 51.435287"/>
        <path id="path936" fill="#143f94" stroke="none" d="M 32.92395 51.781353 C 32.910419 51.110847 32.791477 50.813457 32.402153 50.813457 C 32.088535 50.813457 31.885761 51.040554 31.877649 51.781353 Z M 31.877649 52.143631 L 31.877649 52.31665 C 31.877649 53.073677 32.056084 53.330517 32.458927 53.330517 C 32.791477 53.330517 32.929352 53.022305 32.980724 52.73843 L 33.391678 52.789787 C 33.321388 53.257515 32.972614 53.687393 32.402153 53.687393 C 31.750582 53.687393 31.447773 53.195324 31.447773 52.070618 C 31.447773 50.943218 31.750582 50.45116 32.402153 50.45116 C 33.059128 50.45116 33.353825 51.040543 33.353825 51.938148 L 33.353825 52.143616 Z M 31.877649 52.143631"/>
        <path id="path938" fill="#143f94" stroke="none" d="M 35.519428 51.240623 L 35.784386 51.240623 C 36.189922 51.240623 36.335922 51.094635 36.335922 50.578243 C 36.335922 50.061852 36.189922 49.913155 35.784386 49.913155 L 35.519428 49.913155 Z M 35.519428 53.627922 L 34.778633 53.627922 L 34.778633 49.299438 L 35.822224 49.299438 C 36.652233 49.299438 37.079414 49.653603 37.079414 50.578243 C 37.079414 51.275784 36.80904 51.554253 36.557621 51.670498 L 37.187561 53.627922 L 36.433247 53.627922 L 35.906048 51.838127 C 35.811417 51.84618 35.651901 51.854416 35.519428 51.854416 Z M 35.519428 53.627922"/>
        <path id="path940" fill="#143f94" stroke="none" d="M 38.304138 50.161884 L 38.001347 50.161884 L 38.590721 49.337276 L 39.055744 49.337276 Z M 38.858387 51.781353 C 38.847595 51.110847 38.725918 50.813457 38.33659 50.813457 C 38.025669 50.813457 37.825603 51.040554 37.814793 51.781353 Z M 37.814793 52.143631 L 37.814793 52.31665 C 37.814793 53.073677 37.99052 53.330517 38.398769 53.330517 C 38.725903 53.330517 38.866497 53.022305 38.920567 52.73843 L 39.326118 52.789787 C 39.263939 53.257515 38.904354 53.687393 38.33659 53.687393 C 37.682308 53.687393 37.384918 53.195324 37.384918 52.070618 C 37.384918 50.943218 37.682308 50.45116 38.33659 50.45116 C 38.996273 50.45116 39.29097 51.040543 39.29097 51.938148 L 39.29097 52.143616 Z M 37.814793 52.143631"/>
        <path id="path942" fill="#143f94" stroke="none" d="M 40.561665 52.346409 C 40.81039 52.346409 41.013168 52.154453 41.013168 51.559658 C 41.013168 50.967571 40.81039 50.7756 40.561665 50.7756 C 40.304825 50.7756 40.104755 50.967571 40.104755 51.559658 C 40.104755 52.154453 40.304825 52.346409 40.561665 52.346409 M 40.367001 53.460293 C 40.118271 53.568439 39.947948 53.714439 39.947948 53.887459 C 39.947948 54.147011 40.166935 54.322754 40.634666 54.322754 C 41.110493 54.322754 41.278126 54.130798 41.278126 53.882053 C 41.278126 53.592777 40.740101 53.54681 40.367001 53.460293 M 41.708 50.848602 C 41.664742 50.835072 41.624176 50.835072 41.586338 50.835072 C 41.470078 50.835072 41.391674 50.883732 41.313267 50.954025 C 41.37545 51.148685 41.407898 51.305496 41.407898 51.554222 C 41.407898 52.335571 41.051025 52.670818 40.572487 52.670818 C 40.477856 52.670818 40.380516 52.649216 40.280483 52.649216 C 40.210194 52.665504 40.069611 52.727623 40.069611 52.851994 C 40.069611 53.07098 40.423775 53.081802 40.821213 53.16832 C 41.27272 53.260227 41.675549 53.408936 41.675549 53.917217 C 41.675549 54.322754 41.278126 54.64719 40.621147 54.64719 C 39.9128 54.64719 39.553219 54.387642 39.553219 53.9767 C 39.553219 53.698231 39.726234 53.473824 40.004723 53.354855 C 39.820866 53.292706 39.672173 53.141273 39.672173 52.933105 C 39.672173 52.700588 39.877655 52.554588 40.080418 52.519444 C 39.83709 52.346424 39.710026 51.951694 39.710026 51.627254 C 39.710026 50.883762 40.069611 50.451176 40.610325 50.451176 C 40.818504 50.451176 41.080765 50.543098 41.180801 50.740471 C 41.278126 50.572838 41.448448 50.451176 41.708 50.451176 Z M 41.708 50.848602"/>
        <path id="path944" fill="#143f94" stroke="none" d="M 42.135166 50.513355 L 42.567749 50.513355 L 42.567749 53.627922 L 42.135166 53.627922 Z M 42.135166 49.302132 L 42.567749 49.302132 L 42.567749 49.805008 L 42.135166 49.805008 Z M 42.135166 49.302132"/>
        <path id="path946" fill="#143f94" stroke="none" d="M 43.935783 53.330532 C 44.306171 53.330532 44.460274 53.098015 44.460274 52.070633 C 44.460274 51.040554 44.306171 50.813457 43.935783 50.813457 C 43.573486 50.813457 43.419388 51.040554 43.419388 52.070633 C 43.419388 53.098015 43.573486 53.330532 43.935783 53.330532 M 43.935783 50.451176 C 44.592754 50.451176 44.887455 50.94323 44.887455 52.070633 C 44.887455 53.195339 44.592754 53.687405 43.935783 53.687405 C 43.286903 53.687405 42.986805 53.195339 42.986805 52.070633 C 42.986805 50.94323 43.286903 50.451176 43.935783 50.451176"/>
        <path id="path948" fill="#143f94" stroke="none" d="M 45.298397 50.513355 L 45.706642 50.513355 L 45.706642 50.854004 C 45.909416 50.643131 46.209518 50.451176 46.412292 50.451176 C 46.84486 50.451176 47.09901 50.694504 47.09901 51.26767 L 47.09901 53.627922 L 46.663719 53.627922 L 46.663719 51.327141 C 46.663719 50.967571 46.558292 50.813457 46.323067 50.813457 C 46.114887 50.813457 45.920227 50.954052 45.73098 51.197365 L 45.73098 53.627922 L 45.298397 53.627922 Z M 45.298397 50.513355"/>
        <path id="path950" fill="#143f94" stroke="none" d="M 49.045612 51.951679 C 48.650883 52.070633 48.004715 52.359924 48.004715 52.851978 C 48.004715 53.141273 48.137184 53.330532 48.450817 53.330532 C 48.683319 53.330532 48.88879 53.16832 49.045612 53.003384 Z M 47.658646 51.362301 C 47.739761 50.870232 48.031746 50.451176 48.583286 50.451176 C 49.159161 50.451176 49.472778 50.786423 49.472778 51.337963 L 49.472778 53.073677 C 49.472778 53.354855 49.502522 53.55492 49.551182 53.627922 L 49.105083 53.627922 L 49.048306 53.36837 C 48.880676 53.533291 48.583286 53.687405 48.385914 53.687405 C 47.899265 53.687405 47.577534 53.376484 47.577534 52.88443 C 47.577534 52.119308 48.423767 51.727287 49.045597 51.59211 L 49.045597 51.367702 C 49.045597 51.027039 48.869873 50.813457 48.594093 50.813457 C 48.264252 50.813457 48.102039 51.140591 48.056072 51.424477 Z M 47.658646 51.362301"/>
        <path id="path952" fill="#143f94" stroke="none" d="M 50.159496 49.302132 L 50.589375 49.302132 L 50.589375 53.627922 L 50.159496 53.627922 Z M 50.159496 49.302132"/>
        <path id="path954" fill="#143f94" stroke="none" d="M 52.481895 51.781353 C 52.471119 51.110847 52.352119 50.813457 51.962807 50.813457 C 51.649189 50.813457 51.446415 51.040554 51.441013 51.781353 Z M 51.441013 52.143631 L 51.441013 52.31665 C 51.441013 53.073677 51.611336 53.330517 52.022293 53.330517 C 52.352131 53.330517 52.487312 53.022305 52.544086 52.73843 L 52.952335 52.789787 C 52.884708 53.257515 52.530571 53.687393 51.962807 53.687393 C 51.305832 53.687393 51.005733 53.195324 51.005733 52.070618 C 51.005733 50.943218 51.305832 50.45116 51.962807 50.45116 C 52.619781 50.45116 52.91177 51.040543 52.91177 51.938148 L 52.91177 52.143616 Z M 51.441013 52.143631"/>
        <path id="path956" fill="#143f94" stroke="none" d="M 55.742462 51.086525 C 55.618088 50.962151 55.466686 50.813457 55.274734 50.813457 C 54.907047 50.813457 54.698872 51.110847 54.698872 52.070633 C 54.698872 53.030415 54.925972 53.330532 55.285553 53.330532 C 55.420715 53.330532 55.609978 53.208855 55.742462 53.030415 Z M 55.820869 53.330532 L 55.804581 53.330532 C 55.658566 53.549519 55.442287 53.687405 55.166523 53.687405 C 54.674473 53.687405 54.268921 53.271046 54.268921 52.070633 C 54.268921 50.870232 54.674473 50.451176 55.166523 50.451176 C 55.401737 50.451176 55.593693 50.591759 55.742401 50.737762 L 55.742401 49.299438 L 56.169567 49.299438 L 56.169567 52.789803 C 56.169567 53.195339 56.199387 53.446777 56.248047 53.627922 L 55.837093 53.627922 Z M 55.820869 53.330532"/>
        <path id="path958" fill="#143f94" stroke="none" d="M 58.083794 51.781353 C 58.070068 51.110847 57.95137 50.813457 57.559307 50.813457 C 57.25108 50.813457 57.048313 51.040554 57.040188 51.781353 Z M 57.040188 52.143631 L 57.040188 52.31665 C 57.040188 53.073677 57.215977 53.330517 57.621468 53.330517 C 57.951313 53.330517 58.089199 53.022305 58.143261 52.73843 L 58.551525 52.789787 C 58.483837 53.257515 58.132458 53.687393 57.559307 53.687393 C 56.907719 53.687393 56.613022 53.195324 56.613022 52.070618 C 56.613022 50.943218 56.907719 50.45116 57.559307 50.45116 C 58.221684 50.45116 58.513657 51.040543 58.513657 51.938148 L 58.513657 52.143616 Z M 57.040188 52.143631"/>
        <path id="path960" fill="#143f94" stroke="none" d="M 61.292992 50.367371 C 61.265915 49.996964 61.065876 49.888817 60.900959 49.888817 C 60.663033 49.888817 60.527855 50.045628 60.527855 50.31329 C 60.527855 51.051376 62.039165 51.40556 62.039165 52.578926 C 62.039165 53.292679 61.560642 53.687405 60.86581 53.687405 C 60.173691 53.687405 59.778961 53.138561 59.749218 52.4897 L 60.454868 52.386959 C 60.487244 52.827641 60.663033 53.041241 60.900959 53.041241 C 61.160492 53.041241 61.333542 52.903351 61.333542 52.646492 C 61.333542 51.786758 59.822231 51.562351 59.822231 50.318691 C 59.822231 49.631973 60.23856 49.239952 60.968536 49.239952 C 61.574158 49.239952 61.939144 49.677929 62.001324 50.288952 Z M 61.292992 50.367371"/>
        <path id="path962" fill="#143f94" stroke="none" d="M 63.758678 51.951679 C 63.361256 52.070633 62.717781 52.359924 62.717781 52.851978 C 62.717781 53.141273 62.852962 53.330532 63.163883 53.330532 C 63.396389 53.330532 63.601856 53.16832 63.758678 53.003384 Z M 62.374428 51.362301 C 62.455448 50.870232 62.744831 50.451176 63.293659 50.451176 C 63.869537 50.451176 64.18856 50.786423 64.18856 51.337963 L 64.18856 53.073677 C 64.18856 53.354855 64.218384 53.55492 64.269592 53.627922 L 63.81538 53.627922 L 63.763977 53.36837 C 63.596424 53.533291 63.293552 53.687405 63.096184 53.687405 C 62.612228 53.687405 62.2878 53.376484 62.2878 52.88443 C 62.2878 52.119308 63.134022 51.727287 63.75856 51.59211 L 63.75856 51.367702 C 63.75856 51.027039 63.582771 50.813457 63.307072 50.813457 C 62.97723 50.813457 62.815018 51.140591 62.766342 51.424477 Z M 62.374428 51.362301"/>
        <path id="path964" fill="#143f94" stroke="none" d="M 64.850952 50.513355 L 65.25647 50.513355 L 65.25647 50.854004 C 65.46196 50.643131 65.764755 50.451176 65.967545 50.451176 C 66.397408 50.451176 66.65155 50.694504 66.65155 51.26767 L 66.65155 53.627922 L 66.218964 53.627922 L 66.218964 51.327141 C 66.218964 50.967571 66.113602 50.813457 65.878319 50.813457 C 65.667427 50.813457 65.47818 50.954052 65.283524 51.197365 L 65.283524 53.627922 L 64.850952 53.627922 Z M 64.850952 50.513355"/>
        <path id="path966" fill="#143f94" stroke="none" d="M 66.889473 50.513355 L 67.308525 50.513355 L 67.308525 49.469765 L 67.741112 49.469765 L 67.741112 50.513355 L 68.316971 50.513355 L 68.316971 50.870232 L 67.741112 50.870232 L 67.741112 53.052048 C 67.741112 53.233192 67.83567 53.36837 68.049309 53.36837 C 68.135826 53.36837 68.243927 53.330502 68.316971 53.303513 L 68.316971 53.627953 C 68.195328 53.665806 68.087166 53.687393 67.906013 53.687393 C 67.500481 53.687393 67.308525 53.500854 67.308525 53.014191 L 67.308525 50.870232 L 66.889473 50.870232 Z M 66.889473 50.513355"/>
        <path id="path968" fill="#143f94" stroke="none" d="M 69.393021 50.161884 L 69.095627 50.161884 L 69.682297 49.337276 L 70.150024 49.337276 Z M 69.952652 51.781353 C 69.938911 51.110847 69.817474 50.813457 69.430862 50.813457 C 69.117241 50.813457 68.914482 51.040554 68.909058 51.781353 Z M 68.909058 52.143631 L 68.909058 52.31665 C 68.909058 53.073677 69.082108 53.330517 69.490341 53.330517 C 69.817474 53.330517 69.958069 53.022305 70.012138 52.73843 L 70.420372 52.789787 C 70.352684 53.257515 69.998619 53.687393 69.430862 53.687393 C 68.776588 53.687393 68.473785 53.195324 68.473785 52.070618 C 68.473785 50.943218 68.776588 50.45116 69.430862 50.45116 C 70.090561 50.45116 70.38253 51.040543 70.38253 51.938148 L 70.38253 52.143616 Z M 68.909058 52.143631"/>
        <path id="path970" fill="#e31e1e" stroke="none" d="M 16.515717 49.212921 C 17.724232 49.212921 18.702936 50.180805 18.702936 51.389332 C 18.702936 52.595139 17.724232 53.571148 16.515717 53.571148 C 15.309898 53.571148 14.347419 52.595139 14.347419 51.389332 C 14.347419 50.180805 15.309898 49.212921 16.515717 49.212921"/>
        <path id="path972" fill="#ffffff" stroke="none" d="M 14.390677 49.212921 C 15.596482 49.212921 16.575201 50.180805 16.575201 51.389332 C 16.575201 52.595139 15.596482 53.571148 14.390677 53.571148 C 13.182164 53.571148 12.21967 52.595139 12.21967 51.389332 C 12.21967 50.180805 13.182164 49.212921 14.390677 49.212921"/>
        <path id="path974" fill="#143f94" stroke="none" d="M 12.176412 49.212921 C 13.379521 49.212921 14.360935 50.180805 14.360935 51.389332 C 14.360935 52.595139 13.379521 53.571148 12.176412 53.571148 C 10.967897 53.571148 10 52.595139 10 51.389332 C 10 50.180805 10.967897 49.212921 12.176412 49.212921"/>
        <path id="path976" fill="#94bf1e" stroke="none" d="M 57.678242 56.185547 C 61.574158 61.752289 65.075325 63.185207 70.482567 63.185207 C 75.730286 63.185207 79.707314 59.76783 79.707314 55.306862 C 79.707314 43.302807 55.37207 50.061852 55.37207 35.351486 C 55.37207 27.556965 61.495754 24.058487 68.495415 24.058487 C 75.411278 24.058487 79.785721 26.762108 82.727242 31.533981 L 79.07196 34.075382 C 76.287239 30.260571 73.267288 27.875988 68.335907 27.875988 C 63.723518 27.875988 60.143948 30.10107 60.143948 35.108158 C 60.143948 45.211571 84.479187 39.247398 84.479187 55.306862 C 84.479187 62.706654 77.639046 67.000008 70.166252 67.000008 C 63.801937 67.000008 58.078392 64.455902 54.179768 58.651237 Z M 57.678242 56.185547"/>
        <path id="path978" fill="#143f94" stroke="none" d="M 42.792141 46.766151 L 42.792141 38.936478 C 44.879341 32.372105 47.764099 28.751968 53.282177 28.630302 L 53.282177 24.212593 C 48.007423 24.212593 45.368683 26.670174 42.91111 31.02029 L 42.792156 31.02029 L 42.792156 24.70195 L 38.37714 24.70195 L 38.37714 46.766151 Z M 42.792141 46.766151"/>
    </g>
</svg>
