<?xml version="1.0" encoding="UTF-8"?>
<!-- Generated by Pixelmator Pro 3.6.17 -->
<svg width="93" height="91" viewBox="0 0 93 91" xmlns="http://www.w3.org/2000/svg">
    <g id="Associer">
        <path id="Network" fill="#0062ae" fill-rule="evenodd" stroke="none" d="M 90.726768 45.510521 C 90.726768 21.963898 70.864601 2.87558 46.363384 2.87558 C 21.862164 2.87558 2 21.963898 2 45.510521 C 2 69.057152 21.862164 88.145462 46.363384 88.145462 C 70.864601 88.145462 90.726768 69.057152 90.726768 45.510521 Z"/>
        <path id="path13447" fill="#ffffff" stroke="none" d="M 51.764957 8.079895 C 50.322304 8.079895 48.993366 9.222824 48.796955 10.637833 C 48.600548 12.050598 49.593975 13.193466 51.037888 13.193466 C 52.480545 13.193466 53.809483 12.050735 54.00589 10.637833 C 54.213787 9.223877 53.208878 8.079895 51.764957 8.079895 Z M 44.65163 10.94223 C 43.300861 10.94223 42.053478 12.0159 41.868557 13.339348 C 41.753006 14.152641 42.064625 14.878448 42.630768 15.308052 L 46.244286 17.682243 C 46.244286 17.682243 45.678368 21.67482 45.38961 23.745735 C 45.297176 24.343948 46.048794 24.718025 46.638145 24.423721 C 47.643291 23.927307 49.639458 22.863945 49.639458 22.863945 C 49.639458 22.863945 51.337105 23.927238 52.191666 24.423721 C 52.688442 24.71788 53.553921 24.344009 53.635471 23.745735 C 53.924339 21.686241 54.513687 17.682243 54.513687 17.682243 L 58.807186 15.308052 C 59.50037 14.866737 60.021271 14.152573 60.136131 13.339348 C 60.320938 12.014992 59.384941 10.94223 58.034172 10.94223 C 57.560493 10.94223 57.087723 11.065201 56.521458 11.359497 L 50.839294 14.46994 L 50.839294 14.481651 L 45.908321 11.303413 C 45.561779 11.065758 45.123474 10.941742 44.649448 10.941742 Z"/>
        <g id="g1">
            <g id="g2">
                <path id="Trac" fill="#ffffff" stroke="none" d="M 35.764851 16.438316 C 34.322193 16.438316 32.993256 17.581245 32.796848 18.996254 C 32.600437 20.409019 33.593868 21.55188 35.037777 21.55188 C 36.480434 21.55188 37.809372 20.409157 38.005779 18.996254 C 38.213676 17.582298 37.208767 16.438316 35.764851 16.438316 Z M 28.65152 19.300652 C 27.300755 19.300652 26.053368 20.374313 25.868448 21.697769 C 25.752895 22.511063 26.064514 23.23687 26.630661 23.666473 L 30.244175 26.040665 C 30.244175 26.040665 29.678259 30.033237 29.389502 32.104156 C 29.29707 32.702362 30.048687 33.07645 30.638037 32.782146 C 31.643183 32.285728 33.639347 31.22237 33.639347 31.22237 C 33.639347 31.22237 35.336998 32.28566 36.191555 32.782146 C 36.688332 33.076309 37.55381 32.702435 37.635361 32.104156 C 37.924229 30.044666 38.51358 26.040665 38.51358 26.040665 L 42.807076 23.666473 C 43.500259 23.225159 44.021164 22.510994 44.136021 21.697769 C 44.320827 20.373405 43.384834 19.300652 42.034065 19.300652 C 41.560383 19.300652 41.087616 19.423622 40.521351 19.717918 L 34.839184 22.828362 L 34.839184 22.840065 L 29.908213 19.661835 C 29.561672 19.424179 29.123365 19.300156 28.649338 19.300156 Z"/>
            </g>
            <g id="g3">
                <path id="path1" fill="#ffffff" stroke="none" d="M 33.341286 33.268871 C 31.89863 33.268871 30.569693 34.4118 30.373283 35.826805 C 30.176876 37.239571 31.170305 38.382431 32.614216 38.382431 C 34.056873 38.382431 35.385807 37.239712 35.582218 35.826805 C 35.790115 34.412849 34.785206 33.268871 33.341286 33.268871 Z M 26.227957 36.131207 C 24.87719 36.131207 23.629805 37.204872 23.444883 38.528324 C 23.329332 39.341614 23.640953 40.067417 24.207096 40.497025 L 27.820612 42.871216 C 27.820612 42.871216 27.254696 46.863792 26.965939 48.934708 C 26.873505 49.532917 27.625124 49.907001 28.214474 49.612698 C 29.21962 49.11628 31.215786 48.052921 31.215786 48.052921 C 31.215786 48.052921 32.913433 49.116211 33.767994 49.612698 C 34.264771 49.90686 35.130245 49.532986 35.211796 48.934708 C 35.500668 46.875217 36.090019 42.871216 36.090019 42.871216 L 40.383511 40.497025 C 41.076698 40.05571 41.597599 39.341545 41.71246 38.528324 C 41.897266 37.20396 40.961269 36.131207 39.610504 36.131207 C 39.136818 36.131207 38.664055 36.254169 38.097782 36.548473 L 32.415623 39.658913 L 32.415623 39.67062 L 27.48465 36.492386 C 27.138109 36.25473 26.6998 36.130714 26.225775 36.130714 Z"/>
            </g>
            <g id="g4">
                <path id="path2" fill="#ffffff" stroke="none" d="M 49.36322 24.895515 C 47.920563 24.895515 46.591625 26.038452 46.395218 27.453457 C 46.198807 28.866222 47.192238 30.009083 48.636147 30.009083 C 50.078804 30.009083 51.407742 28.86636 51.604149 27.453457 C 51.812046 26.039497 50.807137 24.895515 49.36322 24.895515 Z M 42.249889 27.757854 C 40.899124 27.757854 39.651737 28.831516 39.466816 30.154968 C 39.351265 30.968262 39.662884 31.694065 40.229031 32.123672 L 43.842548 34.497864 C 43.842548 34.497864 43.276627 38.49044 42.987873 40.561356 C 42.895439 41.159565 43.647057 41.533646 44.236408 41.239346 C 45.241554 40.742928 47.237717 39.679569 47.237717 39.679569 C 47.237717 39.679569 48.935368 40.742859 49.789925 41.239346 C 50.286701 41.533508 51.15218 41.159634 51.23373 40.561356 C 51.522598 38.501869 52.11195 34.497864 52.11195 34.497864 L 56.405445 32.123672 C 57.098629 31.682358 57.619534 30.968193 57.73439 30.154968 C 57.919197 28.830608 56.983204 27.757854 55.632439 27.757854 C 55.158752 27.757854 54.685986 27.880817 54.119717 28.175121 L 48.437553 31.285561 L 48.437553 31.297268 L 43.506584 28.119038 C 43.160046 27.881378 42.721733 27.757362 42.247707 27.757362 Z"/>
            </g>
            <g id="g5">
                <path id="path3" fill="#ffffff" stroke="none" d="M 65.295563 16.449806 C 63.852905 16.449806 62.523964 17.592735 62.32756 19.007736 C 62.131145 20.420502 63.12458 21.56337 64.568489 21.56337 C 66.011147 21.56337 67.34008 20.420647 67.536491 19.007736 C 67.744392 17.593781 66.739479 16.449806 65.295563 16.449806 Z M 58.182232 19.312134 C 56.831467 19.312134 55.58408 20.385803 55.399158 21.709251 C 55.283607 22.522552 55.595226 23.248352 56.161369 23.677956 L 59.774887 26.052147 C 59.774887 26.052147 59.208969 30.044727 58.920212 32.115643 C 58.827782 32.713852 59.579395 33.087933 60.168747 32.793633 C 61.173897 32.297211 63.170059 31.233852 63.170059 31.233852 C 63.170059 31.233852 64.867706 32.297142 65.722267 32.793633 C 66.21904 33.087791 67.084518 32.713921 67.166069 32.115643 C 67.454941 30.056152 68.044289 26.052147 68.044289 26.052147 L 72.337791 23.677956 C 73.030975 23.236641 73.551872 22.522476 73.666733 21.709251 C 73.85154 20.384895 72.915543 19.312134 71.564774 19.312134 C 71.091087 19.312134 70.618324 19.435104 70.052055 19.729401 L 64.369896 22.839844 L 64.369896 22.851555 L 59.438923 19.673325 C 59.092384 19.435661 58.654076 19.311653 58.18005 19.311653 Z"/>
            </g>
            <g id="g6">
                <path id="path4" fill="#ffffff" stroke="none" d="M 62.816864 33.34927 C 61.374207 33.34927 60.045273 34.492203 59.848862 35.907211 C 59.652454 37.319977 60.645882 38.462833 62.089794 38.462833 C 63.532448 38.462833 64.861389 37.320118 65.057793 35.907211 C 65.265694 34.493256 64.26078 33.34927 62.816864 33.34927 Z M 55.703537 36.211609 C 54.352768 36.211609 53.105385 37.285275 52.920464 38.608727 C 52.804909 39.42202 53.116528 40.14782 53.682674 40.577423 L 57.296188 42.951618 C 57.296188 42.951618 56.730274 46.944195 56.441517 49.01511 C 56.349083 49.613319 57.1007 49.987404 57.690052 49.6931 C 58.695198 49.196682 60.691364 48.133324 60.691364 48.133324 C 60.691364 48.133324 62.389011 49.196613 63.243572 49.6931 C 63.740345 49.987263 64.60582 49.613392 64.68737 49.01511 C 64.976242 46.955624 65.565598 42.951618 65.565598 42.951618 L 69.859093 40.577423 C 70.552277 40.136112 71.073174 39.421947 71.188034 38.608727 C 71.372841 37.284363 70.436852 36.211609 69.086082 36.211609 C 68.612396 36.211609 68.139633 36.334576 67.573364 36.628876 L 61.891201 39.739315 L 61.891201 39.751022 L 56.960228 36.572792 C 56.613686 36.335133 56.175381 36.211117 55.701351 36.211117 Z"/>
            </g>
            <g id="g7">
                <path id="path5" fill="#ffffff" stroke="none" d="M 46.960331 41.722626 C 45.517677 41.722626 44.18874 42.865551 43.992329 44.280563 C 43.795921 45.693329 44.789349 46.836189 46.233257 46.836189 C 47.675919 46.836189 49.004852 45.693466 49.201263 44.280563 C 49.409161 42.866604 48.404251 41.722626 46.960331 41.722626 Z M 39.847004 44.584961 C 38.496235 44.584961 37.248848 45.658627 37.063931 46.982075 C 36.948376 47.795368 37.259995 48.521172 37.826141 48.950779 L 41.439655 51.32497 C 41.439655 51.32497 40.873741 55.317547 40.584984 57.388462 C 40.49255 57.986671 41.244167 58.360752 41.833519 58.066452 C 42.838665 57.570034 44.834831 56.506676 44.834831 56.506676 C 44.834831 56.506676 46.532478 57.569965 47.387039 58.066452 C 47.883816 58.360615 48.74929 57.986744 48.830841 57.388462 C 49.119713 55.328972 49.709061 51.32497 49.709061 51.32497 L 54.002556 48.950779 C 54.695744 48.509464 55.216644 47.7953 55.331505 46.982075 C 55.516312 45.657715 54.580315 44.584961 53.229549 44.584961 C 52.755863 44.584961 52.2831 44.707924 51.716827 45.002228 L 46.034668 48.112667 L 46.034668 48.124374 L 41.103695 44.946144 C 40.757153 44.708488 40.318848 44.584473 39.844818 44.584473 Z"/>
            </g>
        </g>
        <path id="path6" fill="#bdcae9" stroke="none" d="M 73.06015 37.828804 C 73.395203 38.9603 72.413483 40.229424 71.767967 40.783043 C 71.017006 41.415257 67.529602 43.168663 67.529602 43.168663 L 83.104721 43.168663 L 83.104721 37.828804 Z M 9.094172 37.852356 L 9.094172 43.169296 L 25.622639 43.169296 C 24.767729 42.648693 22.504173 41.370529 21.960882 40.862896 C 21.290779 40.251785 20.863844 39.21114 21.210489 37.852356 Z M 41.335594 40.951302 C 40.539841 41.392612 36.901966 43.178478 36.901966 43.178478 L 42.733456 43.178478 C 42.733456 42.895535 43.334057 42.273205 43.334057 42.273205 C 41.646759 42.352497 41.323994 40.960411 41.323994 40.960411 Z M 52.353046 40.951302 C 52.353046 40.951302 51.774719 42.422672 49.974281 42.229671 C 49.974281 42.229671 50.344475 42.895813 50.344475 43.178692 L 56.084068 43.178692 C 56.084068 43.178692 52.827766 41.324821 52.35339 40.951511 Z"/>
        <path id="path7" fill="#ffffff" stroke="none" d="M 34.616241 64.361687 C 32.445374 64.361687 30.909687 65.72966 30.57659 67.427261 C 30.195364 69.36042 31.268389 70.468781 33.186222 70.468781 C 35.322632 70.468781 36.904266 69.054901 37.228176 67.392838 L 37.239948 67.392838 C 37.494133 66.068474 37.100739 64.360497 34.616531 64.360497 Z M 41.822609 64.361687 C 39.929699 64.361687 38.160847 65.36805 37.72208 67.597267 C 37.376926 69.338547 38.565845 70.468781 40.4259 70.468781 C 41.013645 70.468781 41.648022 70.367416 42.225769 70.107109 L 42.562309 69.371918 L 42.550541 69.393715 L 42.446224 69.338264 C 41.984135 69.70015 41.301868 69.970894 40.760067 69.970894 C 39.41964 69.970894 38.890137 68.952545 39.178432 67.494492 C 39.432617 66.237923 40.286495 64.881378 41.729492 64.881378 C 42.295639 64.881378 42.792301 65.198181 43.022823 65.66214 L 43.150661 65.66214 C 43.277702 65.356552 43.380505 65.072975 43.519138 64.778816 C 43.068535 64.508698 42.399132 64.361549 41.821499 64.361549 Z M 61.245564 64.361687 C 59.073551 64.361687 57.539013 65.72966 57.203617 67.427261 C 56.822392 69.36042 57.897144 70.468781 59.824741 70.468781 C 61.961147 70.468781 63.542782 69.054901 63.866695 67.392838 C 64.12088 66.068474 63.727711 64.360497 61.245564 64.360497 Z M 73.972145 64.373466 C 72.643204 64.373466 71.801277 65.175888 71.604874 66.160736 C 71.200554 68.219032 73.903229 67.722824 73.625259 69.089668 C 73.509712 69.678131 72.965271 69.971313 72.422676 69.971313 C 71.823326 69.971313 71.419716 69.620926 71.408112 69.032463 L 71.246613 69.032463 C 71.131058 69.405914 70.957161 69.755745 70.783951 70.117699 C 71.14209 70.36657 71.639214 70.481125 72.111748 70.481125 C 73.463654 70.481125 74.572067 69.699379 74.792595 68.601944 C 75.185417 66.645866 72.494232 66.861862 72.725098 65.707504 C 72.817566 65.220901 73.152496 64.869598 73.84568 64.869598 C 74.342461 64.869598 74.619499 65.163971 74.700363 65.616646 L 74.700363 65.626953 L 74.828201 65.626953 C 74.966835 65.332787 75.105598 65.050613 75.267319 64.778954 C 75.105598 64.597946 74.597328 64.373466 73.973984 64.373466 Z M 18.942333 64.418961 L 15.280575 70.33313 C 15.419213 70.33313 15.569336 70.311325 15.707973 70.311325 C 15.846607 70.311325 15.973187 70.321701 16.11182 70.33313 C 16.389097 69.744949 16.72403 69.212708 17.069185 68.556236 L 19.091885 68.556236 L 19.091885 68.568085 C 19.218925 69.145126 19.276815 69.723564 19.357672 70.356476 C 19.611858 70.333832 19.865702 70.311119 20.119886 70.311119 C 20.372581 70.311119 20.615856 70.333969 20.858561 70.356476 L 19.599686 64.419312 C 19.484135 64.441956 19.380413 64.441116 19.264862 64.441116 C 19.149319 64.441116 19.045826 64.441887 18.941877 64.419312 Z M 46.543388 64.418961 L 42.881622 70.33313 C 43.020256 70.33313 43.170387 70.311325 43.309021 70.311325 C 43.447655 70.311325 43.57423 70.321701 43.712875 70.33313 C 44.001743 69.744949 44.313473 69.212708 44.670235 68.556236 L 46.704422 68.556236 L 46.692646 68.568085 C 46.808193 69.145126 46.877575 69.723564 46.958431 70.356476 C 47.212624 70.333832 47.466469 70.311119 47.720654 70.311119 C 47.973351 70.311119 48.205135 70.333969 48.45932 70.356476 L 47.200443 64.419312 C 47.0849 64.441956 46.981178 64.441116 46.865627 64.441116 C 46.75008 64.441116 46.646584 64.441887 46.542637 64.419312 Z M 22.847601 64.486267 L 21.692106 70.299408 L 24.994354 70.299408 C 24.994354 70.186264 24.994802 70.050812 25.01791 69.937668 C 25.041008 69.824585 25.086113 69.700363 25.132322 69.575851 C 24.531605 69.643784 23.874596 69.700363 23.113073 69.700363 L 23.123178 69.688652 L 24.151178 64.486618 C 23.931686 64.509262 23.71287 64.530365 23.493256 64.530365 C 23.273764 64.530365 23.066664 64.509262 22.847164 64.486618 Z M 27.200829 64.486267 L 26.046478 70.299408 L 29.348726 70.299408 C 29.348726 70.186264 29.347466 70.050812 29.370592 69.937668 C 29.393692 69.824585 29.440479 69.700363 29.486721 69.575851 C 28.885996 69.643784 28.228994 69.700363 27.466316 69.700363 L 27.476429 69.688652 L 28.504431 64.486618 C 28.284929 64.509262 28.066122 64.530365 27.846508 64.530365 C 27.626892 64.530365 27.406937 64.509262 27.200415 64.486618 Z M 49.908813 64.498116 C 49.908813 64.621147 49.908367 64.733665 49.88525 64.858177 C 49.862148 64.982681 49.815369 65.106766 49.769127 65.219917 C 50.231209 65.163414 50.787136 65.107193 51.40934 65.107193 L 50.371227 70.356339 C 50.590729 70.333763 50.809536 70.310974 51.029148 70.310974 C 51.24865 70.310974 51.455742 70.333832 51.675243 70.356339 L 52.715073 65.107193 C 53.246532 65.107193 53.742855 65.163269 54.250767 65.219917 C 54.262306 65.106766 54.261326 64.982613 54.28442 64.858177 C 54.307518 64.733665 54.354313 64.621216 54.400539 64.498116 Z M 55.381927 64.509819 L 54.216091 70.36657 C 54.435581 70.343925 54.655888 70.321075 54.874016 70.321075 C 55.093506 70.321075 55.300606 70.343925 55.520107 70.36657 L 56.68824 64.509819 C 56.468739 64.531067 56.248203 64.553566 56.028702 64.553566 C 55.809204 64.553566 55.602112 64.531067 55.38261 64.509819 Z M 65.475891 64.509819 L 64.321541 70.344772 C 64.437096 70.333267 64.564125 70.321213 64.668198 70.321213 C 64.772255 70.321213 64.887459 70.344772 65.003014 70.344772 L 65.822426 66.215485 L 66.584641 67.189743 C 67.370285 68.206764 68.097359 69.257217 68.893349 70.366783 L 69.633629 70.366783 L 70.799461 64.510033 C 70.683907 64.531342 70.556755 64.530289 70.452805 64.530289 C 70.348854 64.530289 70.221939 64.531342 70.117989 64.510033 L 69.320511 68.501488 C 68.363029 67.133446 67.324226 65.833267 66.342178 64.510033 L 65.485779 64.510033 Z M 34.46347 64.869949 L 34.47525 64.869949 C 35.770878 64.877945 36.045395 66.139145 35.826015 67.233765 C 35.54874 68.64653 34.683037 69.959396 33.343872 69.959396 C 32.003448 69.959396 31.748455 68.783241 31.979322 67.675995 C 32.359283 65.770454 33.256573 64.875626 34.462616 64.869949 Z M 61.099693 64.869949 C 62.40337 64.869949 62.680176 66.136826 62.460796 67.233765 C 62.183529 68.64653 61.319195 69.959396 59.978657 69.959396 C 58.638233 69.959396 58.384384 68.783241 58.603775 67.675995 C 58.984989 65.763519 59.88562 64.869949 61.098549 64.869949 Z M 18.624176 66.05761 L 19.006084 68.048111 L 17.410669 68.048111 Z M 46.225227 66.05761 L 46.607136 68.048111 L 45.011715 68.048111 Z M 66.854225 72.979118 C 65.525276 72.979118 64.683357 73.781761 64.486938 74.766319 C 64.082626 76.824615 66.773819 76.327286 66.507339 77.695259 C 66.380302 78.283371 65.848961 78.578583 65.305901 78.578583 C 64.706551 78.578583 64.301208 78.227776 64.289604 77.639664 L 64.128113 77.639664 C 64.001076 78.01297 63.82856 78.362938 63.65535 78.724899 C 64.013489 78.973701 64.509224 79.086571 64.983131 79.086571 C 66.3339 79.086571 67.442314 78.306015 67.66169 77.208588 C 68.05452 75.262878 65.363327 75.478806 65.5942 74.324448 C 65.686661 73.838051 66.021599 73.488297 66.714783 73.488297 C 67.211548 73.488297 67.488708 73.781197 67.569572 74.233589 L 67.697418 74.233589 C 67.847656 73.939568 67.986633 73.656967 68.148361 73.38559 C 67.986633 73.204582 67.478371 72.978424 66.855026 72.978424 Z M 28.777866 73.048103 L 25.118404 78.962273 C 25.25704 78.962273 25.407162 78.940468 25.545794 78.940468 C 25.684437 78.940468 25.811012 78.962273 25.949646 78.962273 C 26.226921 78.374229 26.550598 77.843246 26.908741 77.187691 L 28.929138 77.187691 L 28.929138 77.199539 C 29.056177 77.776505 29.114067 78.352707 29.194925 78.98674 C 29.44911 78.975311 29.702953 78.941383 29.957146 78.941383 C 30.21133 78.941383 30.452879 78.964233 30.694086 78.98674 L 29.437515 73.049652 C 29.321964 73.061073 29.218243 73.071449 29.102692 73.071449 C 28.987141 73.071449 28.881929 73.072151 28.777981 73.049652 Z M 52.496624 73.048103 L 48.82338 78.962273 C 48.962009 78.962273 49.113747 78.940468 49.25238 78.940468 C 49.391014 78.940468 49.51759 78.962273 49.656227 78.962273 C 49.933506 78.374229 50.268661 77.843246 50.615318 77.187691 L 52.635719 77.187691 L 52.645824 77.199539 C 52.772865 77.776505 52.830757 78.352707 52.911613 78.98674 C 53.165798 78.975311 53.421368 78.941383 53.675438 78.941383 C 53.929623 78.941383 54.17141 78.964233 54.414104 78.98674 L 53.155231 73.049652 C 53.039684 73.061073 52.934238 73.071449 52.818691 73.071449 C 52.703144 73.071449 52.599651 73.072151 52.495705 73.049652 Z M 60.706867 73.09185 L 59.552517 78.90612 L 62.867405 78.90612 C 62.879009 78.793106 62.877747 78.657593 62.901058 78.544441 C 62.924145 78.431435 62.971012 78.305527 63.017189 78.181015 C 62.474239 78.248878 61.872826 78.305527 60.984142 78.305527 L 61.411541 76.145012 L 62.323425 76.145012 C 62.716248 76.145012 63.074837 76.178734 63.386806 76.224022 C 63.386806 76.099724 63.385662 75.976624 63.408627 75.852188 C 63.431721 75.739174 63.478573 75.614944 63.52475 75.490509 C 63.201305 75.535797 62.832371 75.569519 62.439548 75.569519 L 61.539379 75.569519 L 61.907852 73.726028 C 62.797459 73.714523 63.374622 73.782669 63.894947 73.850533 C 63.894947 73.737518 63.893803 73.613228 63.916771 73.488861 C 63.939861 73.375847 63.986725 73.251549 64.032898 73.127113 L 64.021179 73.091782 Z M 43.316944 73.115402 L 42.161449 78.928551 L 45.463696 78.928551 C 45.463696 78.815544 45.464142 78.679955 45.487251 78.566811 C 45.510353 78.453796 45.557148 78.329575 45.603382 78.205132 C 45.002655 78.272995 44.345654 78.329643 43.582977 78.329643 L 43.594746 78.317795 L 44.621143 73.115753 C 44.403027 73.138397 44.182835 73.161118 43.963219 73.161118 C 43.743721 73.161118 43.536629 73.13826 43.317127 73.115753 Z M 56.388107 73.115402 L 55.233753 78.928551 L 58.535999 78.928551 C 58.535999 78.815544 58.534851 78.679955 58.557827 78.566811 C 58.58091 78.453796 58.639263 78.329575 58.67395 78.205132 C 58.074608 78.272995 57.416222 78.329643 56.653545 78.329643 L 56.665321 78.317795 L 57.693325 73.115753 C 57.473831 73.138397 57.255013 73.161118 57.0354 73.161118 C 56.815903 73.161118 56.60709 73.13826 56.387589 73.115753 Z M 22.469717 73.127113 L 21.303871 78.986176 C 21.523371 78.963531 21.742188 78.940819 21.961802 78.940819 C 22.181293 78.940819 22.399986 78.974678 22.607895 78.986176 L 22.607895 78.962624 L 23.163128 76.146278 L 24.075008 76.146278 C 24.421539 76.146278 24.766809 76.191498 25.12495 76.225281 C 25.136494 76.10099 25.137167 75.977882 25.160276 75.853516 C 25.183376 75.740433 25.230171 75.616211 25.276405 75.491776 C 24.89518 75.537064 24.536354 75.570778 24.201303 75.570778 L 23.27932 75.570778 L 23.647795 73.727287 C 24.558981 73.727287 25.114567 73.795151 25.634882 73.851791 C 25.646431 73.738785 25.645451 73.614487 25.668541 73.49012 C 25.691641 73.377113 25.738419 73.252815 25.784662 73.128372 Z M 33.140274 73.127113 C 32.412407 75.287697 31.742426 77.266701 31.095755 78.986176 C 31.234398 78.963531 31.360973 78.940819 31.499607 78.940819 C 31.63825 78.940819 31.764824 78.974678 31.903458 78.986176 C 32.157642 77.798523 32.538982 76.610863 33.035755 75.106194 C 33.440063 76.440857 33.867928 77.764099 34.190105 78.940262 C 34.317142 78.917618 34.409378 78.917618 34.524929 78.940262 C 35.40292 77.617088 36.316753 76.305344 37.240238 75.005096 C 37.113197 76.316841 37.02108 77.628517 36.824669 78.986176 C 37.078854 78.963531 37.297092 78.940819 37.539795 78.940819 C 37.781006 78.940819 38.012215 78.974678 38.254917 78.986176 C 38.28957 77.278198 38.463734 75.424332 38.648655 73.127113 C 38.521626 73.149757 38.393787 73.170929 38.266747 73.170929 C 38.139706 73.170929 38.02393 73.149757 37.908386 73.127113 L 37.89661 73.127113 C 36.950726 74.585869 35.934788 75.932037 35.068737 77.141563 C 34.641224 75.795326 34.214058 74.473351 33.856956 73.127113 C 33.741402 73.149757 33.602306 73.170929 33.486755 73.170929 C 33.371204 73.170929 33.255661 73.149757 33.14011 73.127113 Z M 40.495972 73.127113 L 39.330124 78.986176 C 39.549625 78.963531 39.768444 78.940819 39.988049 78.940819 C 40.20755 78.940819 40.416367 78.974678 40.635864 78.986176 L 41.800552 73.127113 C 41.581055 73.149757 41.362244 73.170929 41.142632 73.170929 C 40.924629 73.170929 40.704437 73.149757 40.49654 73.127113 Z M 47.760914 73.127113 L 46.592781 78.986176 C 46.812279 78.963531 47.031086 78.940819 47.250702 78.940819 C 47.470203 78.940819 47.678783 78.974678 47.896793 78.986176 L 49.064926 73.127113 C 48.845428 73.149757 48.624893 73.170929 48.405392 73.170929 C 48.185902 73.170929 47.979034 73.149757 47.761024 73.127113 Z M 28.452814 74.686958 L 28.834723 76.677467 L 27.239305 76.677467 Z M 52.171562 74.686958 L 52.551865 76.677467 L 50.959904 76.677467 Z"/>
    </g>
</svg>
